<?xml version="1.0" encoding="utf-8"?>
<!-- Generator: Adobe Illustrator 16.0.0, SVG Export Plug-In . SVG Version: 6.00 Build 0)  -->
<!DOCTYPE svg PUBLIC "-//W3C//DTD SVG 1.1//EN" "http://www.w3.org/Graphics/SVG/1.1/DTD/svg11.dtd">
<svg version="1.1" id="Layer_1" xmlns="http://www.w3.org/2000/svg" xmlns:xlink="http://www.w3.org/1999/xlink" x="0px" y="0px"
	 width="150px" height="150px" viewBox="0 0 150 150" enable-background="new 0 0 150 150" xml:space="preserve">
<title>logo</title>
<desc>Created with Sketch.</desc>
<g>
	<path fill="#CF0A2C" d="M81.005,52.998c3.058,2.63,4.3,4.793,5.884,8.499c1.564-6.22,4.129-12.268,10.461-21.8
		c4.836-7.292,17.625-22.213,17.625-22.213s-3.938,65.589-34.399,113.13c-0.476,0.748-1.298,1.602-1.765,1.853
		c0.488-1.521,3.047-10.833,3.047-10.833c7.49-35.902-7.34-60.438-26.845-76.264c0,0,4.877,0.311,7.996,0.512
		C69.703,46.309,76.484,49.112,81.005,52.998"/>
	<path fill="#004A97" d="M68.881,100.444c-1.059-1.198-2.235-2.479-3.725-3.868c-9.055-8.445-12.442-9.948-17.313-18.062
		c-1.607-2.688-2.401-4.602-2.401-4.602s-1.79,7.606,4.245,16.476c4.909,7.196,7.215,8.835,11.047,13.025
		c4.403,4.812,7.217,8.791,8.671,10.847c1.454,2.06,1.853,3.082,1.853,3.082s4.201,9.102,2.411,15.173c0,0,0.553-0.035,1.355-1.413
		c2.488-5.025,8.496-24.479,1.39-46.525c-2.906-9.029-5.622-14.063-11.778-22.24C51.422,44.81,46.57,40.586,39.359,25.445
		c-0.771-1.624-2.921-7.48-2.921-7.48s-4.721,11.466,3.096,28.811c6.346,14.077,9.873,17.653,15.275,26.157
		c6.201,9.752,9.89,17.572,11.797,21.61c1.909,4.039,2.29,5.955,2.29,5.955L68.881,100.444z"/>
</g>
</svg>
